# xmcd
#
# Track frame offsets: 
#        150
#        14822
#        33347
#        53582
#        65012
#        84887
#        100312
#        117627
#        132925
#        147157
#        157565
#        173977
#        185750
#        199087
#        215102
#        234095
#        252545
#        268917
#
# Disc length: 3810 seconds
#
# Revision: 0
# Processed by: cddbd v1.5PL3 Copyright (c) Steve Scherf et al.
# Submitted via: ExactAudioCopy v0.95a5
#
DISCID=080ee012
DTITLE=Various Artist - Music You Remember
DYEAR=1998
DGENRE=Oldies
TTITLE0=Renee and Renato - Save Your Love
TTITLE1=Sheer Elegance - Life Is Too Short
TTITLE2=Starship - Nothing's Gonna Stop Us Now
TTITLE3=The Toys - A Lover's Concerto
TTITLE4=Carole King - Some Kind of Wonderful
TTITLE5=Sweet Sensation - Sad Sweet Dreamer
TTITLE6=KC and The Sunshine Band - Please Don't Go
TTITLE7=The Real Thing - You To Me Are Everything
TTITLE8=The Tremeloes - Silence is Golden
TTITLE9=Louis Armstrong - What a Wonderful World
TTITLE10=The Carpenters - Close To You
TTITLE11=James Taylor - Don't Let Me Be Lonely Tonight
TTITLE12=The Association - Never My Love
TTITLE13=Harold Mervin and The Blue Notes - If You Don't Know Me By Now
TTITLE14=Melissa Manchester - Through the Eyes of Love
TTITLE15=Three Degrees - Without You
TTITLE16=David Soul - Don't Give Up on Us
TTITLE17=Jim Brickman with Collin Raye and Susan Aston - The Gift
EXTD=
EXTT0=
EXTT1=
EXTT2=
EXTT3=
EXTT4=
EXTT5=
EXTT6=
EXTT7=
EXTT8=
EXTT9=
EXTT10=
EXTT11=
EXTT12=
EXTT13=
EXTT14=
EXTT15=
EXTT16=
EXTT17=
PLAYORDER=
